#define mapBitmap_width 128
#define mapBitmap_height 103
static unsigned char mapBitmap_bits[] = {
   0x00, 0x00, 0x00, 0x00, 0x00, 0x00, 0x06, 0x00, 0x10, 0x00, 0x00, 0x00,
   0x02, 0x08, 0x00, 0x00, 0x00, 0x00, 0x00, 0x00, 0x00, 0x80, 0x01, 0x00,
   0x0c, 0x00, 0x00, 0x00, 0x02, 0x04, 0x00, 0x00, 0x00, 0x00, 0x00, 0x00,
   0x00, 0x60, 0x00, 0x00, 0x02, 0x00, 0x00, 0x00, 0x02, 0x02, 0x00, 0x00,
   0x00, 0x00, 0x00, 0x00, 0x00, 0x10, 0x00, 0x80, 0x01, 0x00, 0x00, 0x00,
   0x02, 0x02, 0x00, 0x00, 0x00, 0x00, 0x00, 0x00, 0x00, 0x0c, 0x00, 0x40,
   0x00, 0x00, 0x00, 0x00, 0x02, 0x01, 0x00, 0x00, 0x00, 0x00, 0x00, 0x00,
   0x80, 0x03, 0x00, 0x30, 0x00, 0x00, 0x00, 0x00, 0x82, 0x00, 0x00, 0x00,
   0x00, 0x00, 0x00, 0x00, 0x40, 0x00, 0x00, 0x08, 0x00, 0x00, 0x00, 0x00,
   0x43, 0x00, 0x00, 0x80, 0x00, 0x00, 0x00, 0x00, 0x30, 0x00, 0x00, 0x06,
   0x00, 0x00, 0x00, 0x00, 0x41, 0x00, 0x00, 0x40, 0x00, 0x00, 0x00, 0x00,
   0x0c, 0x00, 0x00, 0x01, 0x00, 0x00, 0x00, 0x00, 0x21, 0x00, 0x00, 0x20,
   0x00, 0x00, 0x00, 0x00, 0x02, 0x00, 0xc0, 0x00, 0x00, 0x00, 0x00, 0x00,
   0x11, 0x00, 0x00, 0x10, 0x00, 0x00, 0x00, 0xc0, 0x01, 0x00, 0x30, 0x00,
   0x00, 0x00, 0x00, 0x00, 0x09, 0x00, 0x00, 0x08, 0x00, 0x00, 0x00, 0x30,
   0x00, 0x00, 0x08, 0x00, 0x00, 0x00, 0x00, 0x00, 0x09, 0x00, 0x00, 0x84,
   0x00, 0x00, 0x00, 0x08, 0x00, 0x00, 0x06, 0x00, 0x00, 0x00, 0x00, 0x00,
   0x05, 0x00, 0x00, 0x42, 0x00, 0x00, 0x00, 0x04, 0x00, 0x80, 0x03, 0x00,
   0x00, 0x00, 0x00, 0x80, 0x02, 0x00, 0x00, 0x21, 0x00, 0x00, 0x00, 0x03,
   0x00, 0x60, 0x00, 0x00, 0x00, 0x00, 0x00, 0xe0, 0x01, 0x00, 0x80, 0x10,
   0x00, 0x00, 0xc0, 0x04, 0x00, 0x10, 0x00, 0x00, 0x00, 0x00, 0x00, 0x10,
   0x01, 0x00, 0x40, 0x10, 0x00, 0x00, 0x20, 0x04, 0x00, 0x0c, 0x00, 0x00,
   0x00, 0x00, 0x00, 0x1f, 0x01, 0x00, 0x40, 0x08, 0x00, 0x00, 0x18, 0x04,
   0x00, 0x06, 0x00, 0x00, 0x00, 0x00, 0xfc, 0x18, 0x03, 0x00, 0x20, 0x04,
   0x00, 0x00, 0x06, 0x04, 0x00, 0x02, 0x00, 0x00, 0x00, 0xc0, 0x07, 0x90,
   0x1d, 0x00, 0x20, 0x02, 0x00, 0x80, 0x01, 0x08, 0x00, 0x04, 0x00, 0x00,
   0x00, 0x78, 0x00, 0xec, 0xe0, 0x00, 0x10, 0x02, 0x00, 0x00, 0x00, 0x08,
   0x00, 0x04, 0x00, 0x00, 0x00, 0x06, 0x00, 0x42, 0x00, 0x07, 0x10, 0x01,
   0x00, 0x60, 0x00, 0x10, 0x00, 0x0c, 0x00, 0x00, 0x80, 0x01, 0x80, 0x41,
   0x00, 0x38, 0x08, 0x01, 0x00, 0x18, 0x00, 0x10, 0x00, 0x08, 0x00, 0x00,
   0xe0, 0x00, 0x40, 0x40, 0x00, 0xc0, 0x89, 0x00, 0x00, 0x04, 0x00, 0x20,
   0x00, 0x10, 0x00, 0x00, 0x20, 0x00, 0x20, 0x40, 0x00, 0x00, 0x86, 0x00,
   0x00, 0x02, 0x00, 0x60, 0x00, 0x20, 0x00, 0x00, 0x18, 0x00, 0x18, 0x80,
   0x00, 0x00, 0x44, 0x00, 0x80, 0x01, 0x00, 0x40, 0x00, 0x20, 0x00, 0x00,
   0x0c, 0x00, 0x04, 0x80, 0x00, 0x00, 0x42, 0x00, 0x40, 0x00, 0x00, 0x40,
   0x00, 0x20, 0x00, 0x00, 0x03, 0x00, 0x02, 0x80, 0x00, 0x00, 0x22, 0x00,
   0x38, 0x00, 0x00, 0x80, 0x00, 0x10, 0x00, 0x80, 0x01, 0x00, 0x01, 0x80,
   0x00, 0x00, 0x21, 0x00, 0x04, 0x00, 0x00, 0x00, 0x01, 0x1c, 0x00, 0x40,
   0x00, 0xc0, 0x00, 0x80, 0x00, 0x00, 0x11, 0x00, 0x03, 0x00, 0x00, 0x00,
   0x01, 0x07, 0x00, 0x38, 0x00, 0x20, 0x00, 0x80, 0x00, 0x80, 0x10, 0x00,
   0x00, 0x00, 0x00, 0x00, 0xe1, 0x01, 0x00, 0x0e, 0x00, 0x18, 0x00, 0x80,
   0x00, 0x80, 0x08, 0x00, 0x00, 0x00, 0x00, 0x00, 0x1a, 0x00, 0x80, 0x03,
   0x00, 0x04, 0x00, 0x80, 0x00, 0x80, 0x08, 0x00, 0x00, 0x00, 0x00, 0x00,
   0x06, 0x00, 0xe0, 0x00, 0x00, 0x02, 0x00, 0x00, 0x01, 0x80, 0x08, 0x00,
   0x00, 0x00, 0x00, 0x00, 0x0c, 0x00, 0x38, 0x00, 0x80, 0x01, 0x00, 0x00,
   0x01, 0x80, 0x08, 0x00, 0x00, 0x00, 0x00, 0x00, 0x08, 0x00, 0x0c, 0x00,
   0x40, 0x00, 0x00, 0x00, 0x01, 0x80, 0x08, 0x00, 0x00, 0x00, 0x00, 0x00,
   0x08, 0x00, 0x02, 0x00, 0x20, 0x00, 0x00, 0x00, 0x01, 0x80, 0x08, 0x00,
   0x00, 0x00, 0x00, 0x00, 0x18, 0x80, 0x01, 0x00, 0x10, 0x00, 0x00, 0x00,
   0x01, 0x80, 0x08, 0x00, 0x00, 0x00, 0x00, 0x00, 0x10, 0xe0, 0x00, 0x00,
   0x0c, 0x00, 0x00, 0x00, 0x01, 0x80, 0x08, 0x00, 0x00, 0x00, 0x00, 0x00,
   0x10, 0x20, 0x00, 0x00, 0x03, 0x00, 0x00, 0x00, 0x01, 0x80, 0x08, 0x00,
   0x00, 0x00, 0x00, 0x00, 0x20, 0x18, 0x00, 0x80, 0x00, 0x00, 0x00, 0x00,
   0x01, 0x40, 0x08, 0x00, 0x00, 0x00, 0x00, 0x00, 0x20, 0x0c, 0x00, 0x40,
   0x00, 0x00, 0x00, 0x00, 0x01, 0x40, 0x04, 0x00, 0x00, 0x00, 0x00, 0x00,
   0x60, 0x07, 0x00, 0x20, 0x00, 0x00, 0x00, 0x00, 0x01, 0x40, 0x04, 0x00,
   0x00, 0x00, 0x00, 0x00, 0xc0, 0x01, 0x00, 0x18, 0x00, 0x00, 0x00, 0x00,
   0x01, 0x40, 0x04, 0x00, 0x00, 0x00, 0x00, 0x00, 0x00, 0x00, 0x00, 0x04,
   0x00, 0x00, 0x00, 0x00, 0x01, 0x40, 0x04, 0x00, 0x00, 0x00, 0x00, 0x00,
   0x00, 0x00, 0x00, 0x02, 0x00, 0x00, 0x00, 0x00, 0x01, 0x40, 0x04, 0x00,
   0x00, 0x00, 0x00, 0x00, 0x00, 0x00, 0x00, 0x01, 0x00, 0x00, 0x00, 0x00,
   0x02, 0x40, 0x04, 0x00, 0x00, 0x00, 0x00, 0x00, 0x00, 0x00, 0xc0, 0x00,
   0x00, 0x00, 0x00, 0x00, 0x02, 0x40, 0x04, 0x00, 0x00, 0x00, 0x00, 0x00,
   0x00, 0x00, 0x30, 0x00, 0x00, 0x00, 0x00, 0x00, 0x02, 0x40, 0x04, 0x00,
   0x00, 0x00, 0x00, 0x00, 0x00, 0x00, 0x08, 0x00, 0x00, 0x00, 0x00, 0x00,
   0x02, 0x40, 0x04, 0x00, 0x00, 0x00, 0x00, 0x00, 0x00, 0x00, 0x04, 0x00,
   0x00, 0x00, 0x00, 0x00, 0x02, 0x40, 0x04, 0x00, 0x00, 0x00, 0x00, 0x00,
   0x00, 0x00, 0x02, 0x00, 0x00, 0x00, 0x00, 0x00, 0x02, 0x40, 0x04, 0x00,
   0x00, 0x00, 0x00, 0x00, 0x00, 0x80, 0x01, 0x00, 0x00, 0x00, 0x00, 0x00,
   0x02, 0x40, 0x04, 0x00, 0x00, 0x00, 0x00, 0x00, 0x00, 0x40, 0xe0, 0x03,
   0x00, 0x00, 0x40, 0x00, 0x02, 0x40, 0x04, 0x00, 0x00, 0x00, 0x00, 0x00,
   0x00, 0x20, 0x20, 0x00, 0x00, 0x00, 0x40, 0x00, 0x02, 0x40, 0x04, 0x00,
   0x00, 0x00, 0x00, 0x00, 0x00, 0x18, 0x20, 0x88, 0x8c, 0x1b, 0x47, 0x0c,
   0x02, 0x40, 0x04, 0x00, 0x00, 0x00, 0x00, 0x00, 0x00, 0x04, 0xe0, 0x53,
   0x90, 0x24, 0x49, 0x12, 0x02, 0x40, 0x04, 0x00, 0x00, 0x00, 0x00, 0x00,
   0x00, 0x03, 0x20, 0x20, 0x9c, 0x24, 0x49, 0x1e, 0x02, 0x20, 0x04, 0x00,
   0x00, 0x00, 0x00, 0x00, 0x80, 0x00, 0x20, 0x50, 0x92, 0x24, 0x49, 0x02,
   0x02, 0x20, 0x04, 0x00, 0x00, 0x00, 0x00, 0x00, 0x40, 0x00, 0xe0, 0x8b,
   0x9e, 0x24, 0x47, 0x1c, 0x02, 0x20, 0x02, 0x00, 0x00, 0x00, 0x00, 0x00,
   0x20, 0x00, 0x00, 0x00, 0x00, 0x00, 0x01, 0x00, 0x02, 0x20, 0x02, 0x00,
   0x00, 0x00, 0x00, 0x00, 0x18, 0x00, 0x00, 0x00, 0x00, 0x00, 0x01, 0x00,
   0x02, 0x20, 0x02, 0x00, 0x00, 0x00, 0x00, 0x00, 0x06, 0x00, 0x00, 0x00,
   0x00, 0x00, 0x00, 0x00, 0x02, 0x20, 0x02, 0x00, 0x00, 0x00, 0x00, 0x00,
   0x02, 0x00, 0x00, 0x00, 0x00, 0x00, 0x00, 0x00, 0x02, 0x20, 0x02, 0x00,
   0x00, 0x00, 0x00, 0x80, 0x01, 0x00, 0x00, 0x00, 0x00, 0x00, 0x00, 0x00,
   0x02, 0x20, 0x02, 0x00, 0x00, 0x00, 0x00, 0x40, 0x00, 0x00, 0x00, 0x00,
   0x00, 0x00, 0x00, 0x00, 0x02, 0x20, 0x02, 0x00, 0x00, 0x00, 0x00, 0x30,
   0x00, 0x00, 0x00, 0x00, 0x37, 0x8c, 0x03, 0x00, 0x02, 0x20, 0x02, 0x00,
   0x00, 0x00, 0x00, 0x08, 0x00, 0x00, 0x00, 0x00, 0x49, 0x90, 0x04, 0x00,
   0x04, 0x20, 0x02, 0x00, 0x00, 0x00, 0x00, 0x04, 0x00, 0x00, 0x00, 0x00,
   0x49, 0x9c, 0x04, 0x00, 0x04, 0x20, 0x02, 0x00, 0x00, 0x00, 0x00, 0x02,
   0x00, 0x00, 0x00, 0x00, 0x49, 0x92, 0x04, 0x00, 0x04, 0x20, 0x02, 0x00,
   0x00, 0x00, 0x80, 0x01, 0x00, 0x00, 0x00, 0x00, 0x49, 0x9e, 0x03, 0x00,
   0x04, 0x20, 0x02, 0x00, 0x01, 0x00, 0x60, 0x00, 0x00, 0x00, 0x00, 0x00,
   0x00, 0x80, 0x00, 0x00, 0x04, 0x20, 0x02, 0x00, 0xfe, 0x00, 0x00, 0x00,
   0x00, 0x00, 0x00, 0x00, 0x00, 0x80, 0x00, 0x00, 0x04, 0x20, 0x02, 0x00,
   0x00, 0x7f, 0x18, 0x00, 0x00, 0x00, 0x00, 0x00, 0x00, 0x00, 0x00, 0x00,
   0x04, 0x10, 0x02, 0x00, 0x00, 0x80, 0x07, 0x00, 0x00, 0x00, 0x00, 0x00,
   0x00, 0x00, 0x00, 0x00, 0x04, 0x10, 0x02, 0x00, 0x00, 0x00, 0x02, 0x00,
   0x00, 0x00, 0x00, 0x00, 0x00, 0x00, 0x00, 0x00, 0x04, 0x10, 0x02, 0x00,
   0x00, 0x00, 0x02, 0x00, 0x00, 0x00, 0x00, 0x00, 0x00, 0x00, 0x00, 0x00,
   0x04, 0x10, 0x02, 0x00, 0x00, 0x00, 0x02, 0x00, 0x00, 0x00, 0x00, 0x00,
   0x00, 0x00, 0x00, 0x00, 0x04, 0x10, 0x01, 0x00, 0x00, 0x00, 0x01, 0x00,
   0x00, 0x00, 0x00, 0x00, 0x00, 0x00, 0xf0, 0x1f, 0x04, 0x10, 0x01, 0x00,
   0x00, 0x80, 0x01, 0x00, 0x00, 0x00, 0x00, 0x00, 0xc0, 0xff, 0x0f, 0xe2,
   0x07, 0x10, 0x01, 0x00, 0x00, 0x80, 0x01, 0x00, 0x00, 0x00, 0x00, 0x80,
   0x3f, 0x00, 0x00, 0x02, 0xfc, 0x10, 0x01, 0x00, 0x00, 0x80, 0x02, 0x00,
   0x00, 0x00, 0x00, 0x7e, 0x00, 0x00, 0x00, 0x02, 0x04, 0x1f, 0x01, 0x00,
   0x00, 0x80, 0x02, 0x00, 0x00, 0x00, 0xf8, 0x01, 0x00, 0x00, 0x00, 0x02,
   0x04, 0xe0, 0x03, 0x00, 0x00, 0x40, 0x04, 0x00, 0x00, 0xf0, 0x07, 0x00,
   0x00, 0x00, 0x00, 0x02, 0x04, 0x00, 0xfd, 0x00, 0x00, 0x40, 0x08, 0x00,
   0xc0, 0x0f, 0x00, 0x00, 0x00, 0x00, 0x00, 0x02, 0x04, 0x00, 0x01, 0x1f,
   0x00, 0x20, 0x10, 0x80, 0x3f, 0x00, 0x00, 0x00, 0x00, 0x00, 0x00, 0x02,
   0x04, 0x00, 0x01, 0xe0, 0x00, 0x20, 0x10, 0x7f, 0x00, 0x00, 0x00, 0x00,
   0x00, 0x00, 0x00, 0x02, 0x04, 0x00, 0x01, 0x00, 0x00, 0x10, 0xf8, 0x00,
   0x00, 0x00, 0x00, 0x00, 0x00, 0x00, 0x00, 0xfe, 0x07, 0x00, 0x01, 0x00,
   0x00, 0xd0, 0x07, 0x00, 0x00, 0x00, 0x00, 0x00, 0x00, 0x00, 0x80, 0x01,
   0x04, 0x00, 0x01, 0x00, 0x00, 0x38, 0x00, 0x00, 0x00, 0x00, 0x00, 0x00,
   0x00, 0x00, 0x60, 0x00, 0x08, 0x00, 0x01, 0x00, 0x00, 0x04, 0x00, 0x00,
   0x00, 0x00, 0x00, 0x00, 0x00, 0x00, 0x10, 0x00, 0x08, 0x00, 0x01, 0x00,
   0x00, 0x02, 0x00, 0x00, 0x00, 0x00, 0x00, 0x00, 0x00, 0x00, 0x0c, 0x00,
   0x08, 0x00, 0x01, 0x00, 0x00, 0x01, 0x00, 0x00, 0x00, 0x00, 0x00, 0x00,
   0x00, 0x00, 0x03, 0x00, 0x08, 0x00, 0x01, 0x00, 0x80, 0x00, 0x00, 0x00,
   0x00, 0x00, 0x00, 0x00, 0x00, 0xc0, 0x00, 0x00, 0x10, 0x00, 0x01, 0x00,
   0x40, 0x00, 0x00, 0x00, 0x00, 0x00, 0x00, 0x00, 0x00, 0x20, 0x00, 0x00,
   0x10, 0x00, 0x01, 0x00, 0x20, 0x00, 0x00, 0x00, 0x00, 0x00, 0x00, 0x00,
   0x00, 0x18, 0x00, 0x00, 0x10, 0x80, 0x00, 0x00, 0x20, 0x00, 0x00, 0x00,
   0x00, 0x00, 0x00, 0x00, 0x00, 0x06, 0x00, 0x00, 0x20, 0x80, 0x00, 0x00,
   0x20, 0x00, 0x00, 0x00, 0x00, 0x00, 0x00, 0x00, 0x00, 0x01, 0x00, 0x00,
   0x20, 0x80, 0x00, 0x00, 0x10, 0x00, 0x00, 0x00, 0x00, 0x00, 0x00, 0x00,
   0xc0, 0x00, 0x00, 0x00, 0x20, 0x80, 0x00, 0x00, 0x10, 0x00, 0x00, 0x00,
   0x00, 0x00, 0x00, 0x00, 0x30, 0x00, 0x00, 0x00, 0x20, 0x80, 0x00, 0x00,
   0x10, 0x00, 0x00, 0x00, 0x00, 0x00, 0x00, 0x00, 0x0c, 0x00, 0x00, 0x00,
   0x40, 0x80, 0x00, 0x00, 0x10, 0x00, 0x00, 0x00, 0x00, 0x00, 0x00, 0x00,
   0x02, 0x00, 0x00, 0x00, 0x40, 0x80, 0x00, 0x00, 0x08, 0x00, 0x00, 0x00,
   0x00, 0x00, 0x00, 0x80, 0x01, 0x00, 0x00, 0x00, 0x40, 0x80, 0x00, 0x00,
   0x08, 0x00, 0x00, 0x00, 0x00, 0x00, 0x00, 0x60, 0x00, 0x00, 0x00, 0x00,
   0x40, 0x80, 0x00, 0x00 };
